<svg xmlns="http://www.w3.org/2000/svg"  viewBox="0 0 48 48" width="96px" height="96px"><path fill="#f8bbd0" d="M24,4v20L14,6.681L24,4z"/><path fill="#ffccbc" d="M34,6.681L41.319,14L24,24L34,6.681z"/><path fill="#ffcdd2" d="M24,4l10,2.681L24,24V4z"/><path fill="#dcedc8" d="M24,44V24l10,17.319L24,44z"/><path fill="#b2ebf2" d="M14,41.319L6.681,34L24,24L14,41.319z"/><path fill="#c8e6c9" d="M24,44l-10-2.681L24,24V44z"/><path fill="#ffe0b2" d="M44,24H24l17.319-10L44,24z"/><path fill="#fff9c4" d="M41.319,34L34,41.319L24,24L41.319,34z"/><path fill="#ffecb3" d="M44,24l-2.681,10L24,24H44z"/><path fill="#c5cae9" d="M4,24h20L6.681,34L4,24z"/><path fill="#e1bee7" d="M6.681,14L14,6.681L24,24L6.681,14z"/><path fill="#d1c4e9" d="M4,24l2.681-10L24,24H4z"/></svg>